<svg width="180" height="147" viewBox="0 0 180 147" fill="none" xmlns="http://www.w3.org/2000/svg">
<path d="M118.334 42.5563C140.833 58.2783 177.427 66.546 179.867 77.2532C182.306 88.096 150.727 101.243 128.363 115.881C105.865 130.518 92.7178 146.647 79.2998 146.783C65.8819 147.054 52.3284 131.332 35.9287 116.558C19.6645 101.921 0.554075 88.3671 0.0119357 74.2714C-0.530204 60.1758 17.4959 45.538 33.7601 29.816C50.1598 14.094 64.7976 -2.84791 76.1825 0.404931C87.703 3.52223 95.9706 26.8342 118.334 42.5563Z" fill="#00A950" fill-opacity="0.1"/>
<g clip-path="url(#clip0_184_860)">
<path d="M114.29 105.457V136.795H35.7769C26.8315 136.795 19.5533 129.766 19.5533 121.126C19.5533 112.486 26.8315 105.457 35.7769 105.457H114.29Z" fill="#F2F2F2"/>
<path d="M116.218 136.554C116.218 136.873 116.091 137.18 115.865 137.406C115.639 137.632 115.333 137.759 115.013 137.759H34.3785C29.9991 137.759 25.799 136.019 22.7023 132.922C19.6056 129.826 17.8659 125.626 17.8659 121.246C17.8659 116.867 19.6056 112.667 22.7023 109.57C25.799 106.473 29.9991 104.734 34.3785 104.734H115.013C115.333 104.734 115.639 104.861 115.865 105.087C116.091 105.313 116.218 105.619 116.218 105.939C116.218 106.259 116.091 106.565 115.865 106.791C115.639 107.017 115.333 107.144 115.013 107.144H34.3785C30.6384 107.144 27.0515 108.63 24.4069 111.275C21.7622 113.919 20.2765 117.506 20.2765 121.246C20.2765 124.986 21.7622 128.573 24.4069 131.218C27.0515 133.863 30.6384 135.348 34.3785 135.348H115.013C115.333 135.348 115.639 135.475 115.865 135.701C116.091 135.927 116.218 136.234 116.218 136.554Z" fill="#00A950"/>
<path d="M114.29 112.689H29.9189C29.855 112.689 29.7937 112.663 29.7485 112.618C29.7033 112.573 29.6779 112.512 29.6779 112.448C29.6779 112.384 29.7033 112.322 29.7485 112.277C29.7937 112.232 29.855 112.207 29.9189 112.207H114.29C114.354 112.207 114.415 112.232 114.46 112.277C114.505 112.322 114.531 112.384 114.531 112.448C114.531 112.512 114.505 112.573 114.46 112.618C114.415 112.663 114.354 112.689 114.29 112.689Z" fill="#CCCCCC"/>
<path d="M114.29 118.474H29.9189C29.855 118.474 29.7937 118.449 29.7485 118.404C29.7033 118.358 29.6779 118.297 29.6779 118.233C29.6779 118.169 29.7033 118.108 29.7485 118.063C29.7937 118.017 29.855 117.992 29.9189 117.992H114.29C114.354 117.992 114.415 118.017 114.46 118.063C114.505 118.108 114.531 118.169 114.531 118.233C114.531 118.297 114.505 118.358 114.46 118.404C114.415 118.449 114.354 118.474 114.29 118.474Z" fill="#CCCCCC"/>
<path d="M114.29 124.26H29.9189C29.855 124.26 29.7937 124.234 29.7485 124.189C29.7033 124.144 29.6779 124.082 29.6779 124.019C29.6779 123.955 29.7033 123.893 29.7485 123.848C29.7937 123.803 29.855 123.777 29.9189 123.777H114.29C114.354 123.777 114.415 123.803 114.46 123.848C114.505 123.893 114.531 123.955 114.531 124.019C114.531 124.082 114.505 124.144 114.46 124.189C114.415 124.234 114.354 124.26 114.29 124.26Z" fill="#CCCCCC"/>
<path d="M114.29 130.045H29.9189C29.855 130.045 29.7937 130.02 29.7485 129.974C29.7033 129.929 29.6779 129.868 29.6779 129.804C29.6779 129.74 29.7033 129.679 29.7485 129.634C29.7937 129.588 29.855 129.563 29.9189 129.563H114.29C114.354 129.563 114.415 129.588 114.46 129.634C114.505 129.679 114.531 129.74 114.531 129.804C114.531 129.868 114.505 129.929 114.46 129.974C114.415 130.02 114.354 130.045 114.29 130.045Z" fill="#CCCCCC"/>
<path d="M174.969 111.356L155.307 135.758L94.1703 86.4975C87.2046 80.8849 85.9476 70.8449 91.3683 64.1174C96.789 57.3899 106.867 56.4828 113.832 62.0954L174.969 111.356Z" fill="#F2F2F2"/>
<path d="M156.96 136.78C156.759 137.029 156.468 137.188 156.15 137.222C155.832 137.256 155.514 137.163 155.265 136.963L92.4763 86.3709C89.0662 83.6232 86.8872 79.6333 86.4188 75.279C85.9504 70.9247 87.2309 66.5627 89.9787 63.1525C92.7264 59.7424 96.7163 57.5634 101.071 57.095C105.425 56.6266 109.787 57.9071 113.197 60.6549L175.985 111.247C176.109 111.346 176.211 111.468 176.287 111.607C176.363 111.746 176.411 111.899 176.428 112.056C176.445 112.214 176.431 112.373 176.386 112.525C176.342 112.677 176.268 112.819 176.168 112.942C176.069 113.065 175.946 113.168 175.807 113.243C175.668 113.319 175.516 113.367 175.358 113.384C175.201 113.401 175.042 113.387 174.89 113.342C174.738 113.297 174.596 113.223 174.473 113.124L111.685 62.5319C110.243 61.3692 108.586 60.5019 106.808 59.9796C105.031 59.4573 103.169 59.2903 101.327 59.488C99.485 59.6858 97.7003 60.2444 96.0744 61.1321C94.4486 62.0198 93.0136 63.2191 91.8514 64.6615C90.6892 66.1039 89.8225 67.7612 89.301 69.5386C88.7794 71.316 88.6131 73.1788 88.8116 75.0205C89.01 76.8622 89.5694 78.6467 90.4577 80.2722C91.3461 81.8976 92.5459 83.3322 93.9888 84.4938L156.777 135.086C157.026 135.286 157.185 135.577 157.219 135.895C157.253 136.213 157.16 136.531 156.96 136.78Z" fill="#CCCCCC"/>
<path d="M170.431 116.987L104.733 64.0512C104.709 64.0313 104.688 64.0068 104.673 63.979C104.658 63.9512 104.648 63.9207 104.645 63.8893C104.642 63.8578 104.644 63.826 104.653 63.7956C104.662 63.7652 104.677 63.7369 104.697 63.7122C104.717 63.6876 104.741 63.6671 104.769 63.6519C104.797 63.6368 104.827 63.6272 104.859 63.6238C104.89 63.6204 104.922 63.6233 104.953 63.6322C104.983 63.6411 105.011 63.6559 105.036 63.6758L170.734 116.612C170.758 116.632 170.779 116.656 170.794 116.684C170.809 116.712 170.819 116.742 170.822 116.774C170.826 116.805 170.823 116.837 170.814 116.868C170.805 116.898 170.79 116.926 170.77 116.951C170.751 116.976 170.726 116.996 170.698 117.011C170.67 117.027 170.64 117.036 170.608 117.039C170.577 117.043 170.545 117.04 170.515 117.031C170.484 117.022 170.456 117.007 170.431 116.987Z" fill="#CCCCCC"/>
<path d="M166.801 121.492L101.103 68.5561C101.054 68.516 101.022 68.4578 101.015 68.3942C101.008 68.3307 101.027 68.2671 101.067 68.2174C101.107 68.1676 101.165 68.1358 101.229 68.129C101.292 68.1221 101.356 68.1407 101.406 68.1807L167.104 121.117C167.129 121.137 167.149 121.161 167.164 121.189C167.179 121.217 167.189 121.247 167.192 121.279C167.196 121.31 167.193 121.342 167.184 121.372C167.175 121.403 167.16 121.431 167.141 121.456C167.121 121.481 167.096 121.501 167.068 121.516C167.04 121.531 167.01 121.541 166.978 121.544C166.947 121.548 166.915 121.545 166.885 121.536C166.854 121.527 166.826 121.512 166.801 121.492Z" fill="#CCCCCC"/>
<path d="M163.171 125.997L97.4736 73.0611C97.4238 73.021 97.392 72.9627 97.3851 72.8992C97.3783 72.8356 97.397 72.7719 97.4371 72.7221C97.4772 72.6724 97.5354 72.6405 97.599 72.6337C97.6626 72.6269 97.7263 72.6456 97.776 72.6857L163.474 125.622C163.499 125.642 163.519 125.666 163.534 125.694C163.549 125.722 163.559 125.752 163.562 125.784C163.566 125.815 163.563 125.847 163.554 125.877C163.545 125.908 163.53 125.936 163.51 125.961C163.491 125.985 163.466 126.006 163.438 126.021C163.41 126.036 163.38 126.046 163.348 126.049C163.317 126.052 163.285 126.05 163.255 126.041C163.224 126.032 163.196 126.017 163.171 125.997Z" fill="#CCCCCC"/>
<path d="M159.541 130.502L93.8436 77.5661C93.819 77.5462 93.7985 77.5217 93.7833 77.4939C93.7681 77.4661 93.7586 77.4356 93.7552 77.4042C93.7518 77.3727 93.7546 77.3409 93.7636 77.3105C93.7725 77.2801 93.7873 77.2518 93.8071 77.2271C93.827 77.2025 93.8515 77.182 93.8793 77.1668C93.9071 77.1516 93.9376 77.1421 93.9691 77.1387C94.0005 77.1353 94.0324 77.1382 94.0627 77.1471C94.0931 77.156 94.1214 77.1708 94.1461 77.1907L159.844 130.127C159.869 130.147 159.889 130.171 159.904 130.199C159.92 130.227 159.929 130.257 159.933 130.289C159.936 130.32 159.933 130.352 159.924 130.382C159.915 130.413 159.901 130.441 159.881 130.466C159.861 130.491 159.836 130.511 159.808 130.526C159.781 130.541 159.75 130.551 159.719 130.554C159.687 130.558 159.655 130.555 159.625 130.546C159.594 130.537 159.566 130.522 159.541 130.502Z" fill="#CCCCCC"/>
<path d="M179.107 138H0.241059C0.177127 138 0.115812 137.975 0.0706045 137.929C0.0253971 137.884 0 137.823 0 137.759C0 137.695 0.0253971 137.634 0.0706045 137.589C0.115812 137.543 0.177127 137.518 0.241059 137.518H179.107C179.171 137.518 179.232 137.543 179.278 137.589C179.323 137.634 179.348 137.695 179.348 137.759C179.348 137.823 179.323 137.884 179.278 137.929C179.232 137.975 179.171 138 179.107 138Z" fill="#CCCCCC"/>
<path d="M81.4976 102.163L78.7418 102.163L77.4312 91.5331L81.4986 91.5336L81.4976 102.163Z" fill="#FFB8B8"/>
<path d="M76.7732 101.375H82.088V104.722H73.4268C73.4268 104.282 73.5134 103.847 73.6815 103.441C73.8497 103.035 74.0962 102.666 74.4069 102.356C74.7177 102.045 75.0866 101.798 75.4926 101.63C75.8986 101.462 76.3337 101.375 76.7732 101.375Z" fill="#2F2E41"/>
<path d="M53.3431 102.163L50.5873 102.163L49.2767 91.5331L53.3441 91.5336L53.3431 102.163Z" fill="#FFB8B8"/>
<path d="M48.6188 101.375H53.9336V104.722H45.2724C45.2724 104.282 45.359 103.847 45.5271 103.441C45.6953 103.035 45.9418 102.666 46.2525 102.356C46.5633 102.045 46.9322 101.798 47.3382 101.63C47.7442 101.462 48.1793 101.375 48.6188 101.375Z" fill="#2F2E41"/>
<path d="M62.5479 23.3153V22.11C62.5479 20.0481 63.367 18.0708 64.8249 16.6128C66.2829 15.1549 68.2602 14.3358 70.3221 14.3358C72.3839 14.3358 74.3613 15.1549 75.8193 16.6128C77.2772 18.0708 78.0963 20.0481 78.0963 22.11V23.3153C78.0963 24.8017 77.5058 26.2273 76.4547 27.2784C75.4036 28.3294 73.9781 28.9199 72.4916 28.9199H68.1526C67.4165 28.9199 66.6877 28.775 66.0078 28.4933C65.3278 28.2117 64.7099 27.7988 64.1895 27.2784C63.669 26.7579 63.2562 26.1401 62.9745 25.4601C62.6929 24.7801 62.5479 24.0513 62.5479 23.3153Z" fill="#2F2E41"/>
<path d="M70.322 29.3346C73.5919 29.3346 76.2427 26.6839 76.2427 23.414C76.2427 20.1441 73.5919 17.4933 70.322 17.4933C67.0521 17.4933 64.4014 20.1441 64.4014 23.414C64.4014 26.6839 67.0521 29.3346 70.322 29.3346Z" fill="#FFB8B8"/>
<path d="M38.1174 43.7625C38.3577 43.5357 38.6448 43.3642 38.9585 43.2603C39.2722 43.1564 39.6048 43.1225 39.933 43.1611C40.2612 43.1996 40.577 43.3097 40.858 43.4834C41.1391 43.6572 41.3787 43.8905 41.5598 44.1669L46.6352 43.2068L47.9709 46.1489L40.7844 47.404C40.2999 47.6775 39.732 47.7639 39.1881 47.6466C38.6442 47.5294 38.1622 47.2167 37.8335 46.7678C37.5048 46.319 37.3521 45.7651 37.4044 45.2112C37.4568 44.6573 37.7104 44.1419 38.1174 43.7625Z" fill="#FFB8B8"/>
<path d="M65.7726 33.1638L57.4498 38.6466L43.4061 43.1311C43.2199 43.1909 43.0602 43.3134 42.9542 43.4777C42.8482 43.642 42.8024 43.838 42.8246 44.0322L43.131 46.671C43.1446 46.7878 43.1824 46.9005 43.2421 47.0018C43.3018 47.1031 43.382 47.1908 43.4775 47.2593C43.5731 47.3278 43.6819 47.3756 43.797 47.3996C43.9121 47.4236 44.0309 47.4233 44.1459 47.3987L57.3631 44.5655C58.0028 44.4292 58.6076 44.1629 59.1401 43.7832L68.4903 37.1307C68.8293 36.8882 69.0997 36.5621 69.2754 36.1842C69.451 35.8062 69.5259 35.3893 69.4927 34.9738C69.4584 34.5578 69.3164 34.1579 69.0807 33.8134C68.8449 33.4689 68.5236 33.1917 68.1482 33.0091C67.7729 32.8264 67.3564 32.7447 66.9399 32.7718C66.5234 32.7989 66.1211 32.9341 65.7726 33.1638Z" fill="#CCCCCC"/>
<path d="M78.7911 99.1467C78.5795 99.1468 78.3726 99.0852 78.1954 98.9696C78.0183 98.854 77.8787 98.6893 77.7936 98.4956L65.1597 67.2782C65.1302 67.2104 65.0807 67.1534 65.0178 67.1147C64.9549 67.076 64.8817 67.0574 64.8079 67.0616C64.7342 67.0657 64.6635 67.0924 64.6053 67.1379C64.5472 67.1834 64.5044 67.2457 64.4827 67.3163L54.1754 97.7076C54.1319 97.849 54.0599 97.98 53.9639 98.0926C53.8678 98.2052 53.7498 98.297 53.617 98.3622C53.4842 98.4275 53.3394 98.4649 53.1916 98.4722C53.0438 98.4795 52.8961 98.4564 52.7576 98.4045L49.3012 97.1083C49.1136 97.0386 48.949 96.9182 48.8257 96.7606C48.7024 96.6029 48.6252 96.4142 48.6028 96.2153C47.0479 82.6696 60.6076 48.4783 60.7448 48.1347L60.7827 48.0394L73.1436 50.7737L73.1693 50.8017C78.1008 56.1817 82.1544 90.1142 82.917 96.8619C82.9454 97.1056 82.8899 97.3517 82.7597 97.5597C82.6295 97.7677 82.4324 97.9251 82.2007 98.0061L79.1498 99.0851C79.0346 99.1259 78.9133 99.1467 78.7911 99.1467Z" fill="#2F2E41"/>
<path d="M68.1409 51.8742C65.1461 51.8742 61.8072 51.277 60.7795 48.8125L60.7558 48.7559L60.7877 48.7034C61.599 47.3724 62.6711 45.1019 62.0949 44.6757C60.9597 43.8363 60.4088 42.4555 60.4577 40.5715C60.5639 36.4818 63.3505 32.8507 67.392 31.5361C68.5201 31.175 69.6681 30.8795 70.8303 30.6508C71.6775 30.4798 72.5521 30.4986 73.3912 30.7059C74.2303 30.9131 75.0131 31.3036 75.6834 31.8493C76.3621 32.3985 76.9107 33.0913 77.2898 33.8779C77.669 34.6644 77.8692 35.5251 77.8761 36.3982C77.9184 40.7688 77.2456 46.8562 73.7992 51.0354C73.6377 51.2293 73.413 51.36 73.1645 51.4045C71.5065 51.7044 69.8258 51.8615 68.1409 51.8742Z" fill="#CCCCCC"/>
<path d="M67.0268 51.7105C67.1898 51.1259 67.5769 50.6292 68.1041 50.3284C68.6312 50.0276 69.2558 49.947 69.842 50.1041C69.9617 50.1375 70.0784 50.1808 70.191 50.2333L74.0448 46.7262L76.7249 48.5318L71.2138 53.4087C70.965 53.8573 70.5732 54.2099 70.1009 54.4102C69.6285 54.6106 69.1028 54.6472 68.6072 54.5143C68.3185 54.4353 68.0484 54.2998 67.8124 54.1158C67.5764 53.9318 67.3792 53.7028 67.2322 53.442C67.0853 53.1813 66.9915 52.894 66.9562 52.5968C66.9209 52.2996 66.9449 51.9984 67.0268 51.7105Z" fill="#FFB8B8"/>
<path d="M73.4344 51.7551C73.1843 51.7552 72.9419 51.6688 72.7485 51.5104L71.2287 50.2685C71.102 50.1649 71.0004 50.0341 70.9314 49.8857C70.8625 49.7374 70.828 49.5753 70.8305 49.4117C70.833 49.2482 70.8725 49.0873 70.9461 48.9411C71.0196 48.7949 71.1252 48.6673 71.255 48.5678L77.629 43.6791C77.7046 43.6209 77.7541 43.5352 77.7669 43.4407C77.7797 43.3461 77.7547 43.2504 77.6974 43.1742L73.7632 37.973C73.3061 37.3708 73.0768 36.6262 73.116 35.8711C73.1552 35.1161 73.4602 34.3992 73.9771 33.8475C74.5215 33.2595 75.2671 32.8977 76.0658 32.8338C76.8646 32.7699 77.6582 33.0086 78.2891 33.5026L78.314 33.5288L82.4221 39.4113C82.8664 39.7596 83.2241 40.2058 83.4673 40.7153C83.7106 41.2247 83.8328 41.7834 83.8243 42.3479C83.8159 42.9123 83.6772 43.4672 83.4189 43.9691C83.1606 44.471 82.7897 44.9065 82.3353 45.2414L74.0801 51.5424C73.8932 51.6805 73.6668 51.7551 73.4344 51.7551Z" fill="#CCCCCC"/>
<path d="M65.0777 21.7484V18.8108L70.3221 16.5208L75.3227 18.8108V21.7484C75.3227 21.8763 75.2719 21.9989 75.1815 22.0893C75.0911 22.1797 74.9685 22.2305 74.8406 22.2305H65.5598C65.432 22.2305 65.3093 22.1797 65.2189 22.0893C65.1285 21.9989 65.0777 21.8763 65.0777 21.7484Z" fill="#2F2E41"/>
<path d="M70.0813 14.7255C69.3102 12.2574 70.9297 9.42883 73.3238 8.45189C75.7179 7.47496 78.5821 8.15787 80.6023 9.77191C82.6224 11.386 83.8758 13.8035 84.5399 16.3025C85.204 18.8015 85.33 21.4074 85.4526 23.9902C88.3941 24.5305 90.395 28.0193 89.3761 30.8311C88.3571 33.6428 84.5856 35.0397 81.9809 33.5701C79.3762 32.1004 78.6218 28.1499 80.5017 25.8239C81.3912 24.7233 81.888 23.3574 81.9136 21.9425C81.9392 20.5276 81.4919 19.1447 80.6428 18.0127C79.7936 16.8806 78.591 16.0643 77.2255 15.6929C75.86 15.3215 74.4096 15.4163 73.1041 15.9623C71.6544 16.5685 69.8354 14.9933 70.0813 14.7255Z" fill="#2F2E41"/>
<path d="M37.0302 32.367C33.5085 32.3439 30.0308 31.5822 26.8218 30.1312C26.6307 30.046 26.4686 29.9072 26.3551 29.7315C26.2416 29.5559 26.1816 29.351 26.1825 29.1419V20.363C26.1828 20.0754 26.2972 19.7996 26.5006 19.5963C26.7039 19.3929 26.9797 19.2785 27.2673 19.2782H46.7931C47.0807 19.2785 47.3564 19.3929 47.5598 19.5963C47.7631 19.7996 47.8775 20.0754 47.8779 20.363V29.1419C47.8787 29.351 47.8188 29.5559 47.7053 29.7315C47.5918 29.9072 47.4296 30.046 47.2386 30.1312C44.0296 31.5822 40.5519 32.3439 37.0302 32.367Z" fill="#00A950"/>
<path d="M37.0275 25.2549C36.8827 25.2551 36.7394 25.2263 36.606 25.1702L21.1223 18.6376C20.9226 18.5533 20.7527 18.4112 20.6346 18.2296C20.5164 18.0479 20.4554 17.835 20.4593 17.6183C20.4633 17.4016 20.5321 17.1911 20.6568 17.0139C20.7816 16.8367 20.9565 16.7009 21.1592 16.624L36.6431 10.7499C36.8925 10.6549 37.1682 10.6555 37.4172 10.7516L52.6936 16.6256C52.8951 16.7031 53.0689 16.839 53.1927 17.0158C53.3166 17.1926 53.3849 17.4023 53.3889 17.6181C53.3928 17.8339 53.3324 18.046 53.2151 18.2273C53.0979 18.4085 52.9292 18.5507 52.7308 18.6356L37.4542 25.1681C37.3193 25.2255 37.1741 25.2551 37.0275 25.2549Z" fill="#00A950"/>
<path d="M27.9904 30.7285C28.7892 30.7285 29.4368 30.081 29.4368 29.2822C29.4368 28.4834 28.7892 27.8358 27.9904 27.8358C27.1916 27.8358 26.5441 28.4834 26.5441 29.2822C26.5441 30.081 27.1916 30.7285 27.9904 30.7285Z" fill="#3F3D56"/>
<path opacity="0.2" d="M52.7835 17.7084L37.5068 24.2409C37.3877 24.2918 37.2596 24.3182 37.1301 24.3186C37.0005 24.3189 36.8723 24.2931 36.7529 24.2427L21.2692 17.7103C21.0748 17.6302 20.9125 17.4876 20.8082 17.3051C20.7399 17.4235 20.6976 17.555 20.6841 17.691C20.6705 17.827 20.6861 17.9643 20.7297 18.0938C20.7733 18.2234 20.8439 18.3421 20.937 18.4423C21.03 18.5424 21.1432 18.6216 21.2692 18.6745L36.7529 25.207C36.8723 25.2573 37.0005 25.2831 37.1301 25.2828C37.2596 25.2825 37.3877 25.2561 37.5068 25.2052L52.7835 18.6726C52.9088 18.6192 53.0214 18.5397 53.1138 18.4396C53.2062 18.3394 53.2762 18.2208 53.3194 18.0915C53.3626 17.9623 53.3778 17.8254 53.3642 17.6898C53.3505 17.5542 53.3083 17.4231 53.2402 17.3051C53.1366 17.4862 52.976 17.628 52.7835 17.7084Z" fill="black"/>
<path d="M28.112 29.2766C28.1759 29.2766 28.2372 29.2512 28.2824 29.206C28.3276 29.1607 28.353 29.0994 28.353 29.0355V20.9693L36.3035 18.0729C36.3674 18.0739 36.4291 18.0494 36.475 18.0049C36.5208 17.9603 36.5472 17.8994 36.5481 17.8355C36.5491 17.7715 36.5246 17.7098 36.48 17.664C36.4355 17.6181 36.3746 17.5918 36.3106 17.5908L28.3602 20.4872C28.2962 20.4857 28.2326 20.4972 28.1732 20.5211C28.1138 20.5449 28.0599 20.5806 28.0147 20.6258C27.969 20.6706 27.9327 20.724 27.908 20.783C27.8833 20.842 27.8707 20.9054 27.8709 20.9693V29.0355C27.8709 29.0994 27.8963 29.1607 27.9415 29.2059C27.9867 29.2512 28.048 29.2765 28.112 29.2766Z" fill="#3F3D56"/>
</g>
<defs>
<clipPath id="clip0_184_860">
<rect width="179.348" height="130" fill="white" transform="translate(0 8)"/>
</clipPath>
</defs>
</svg>
