<svg width="180" height="147" viewBox="0 0 180 147" fill="none" xmlns="http://www.w3.org/2000/svg">
<path d="M118.334 42.5563C140.833 58.2783 177.427 66.546 179.867 77.2532C182.306 88.096 150.727 101.243 128.363 115.881C105.865 130.518 92.7178 146.647 79.2998 146.783C65.8819 147.054 52.3284 131.332 35.9287 116.558C19.6645 101.921 0.554075 88.3671 0.0119357 74.2714C-0.530204 60.1758 17.4959 45.538 33.7601 29.816C50.1598 14.094 64.7976 -2.84791 76.1825 0.404931C87.703 3.52223 95.9706 26.8342 118.334 42.5563Z" fill="#F1B650" fill-opacity="0.1"/>
<g clip-path="url(#clip0_184_813)">
<path d="M27.8783 114.897C29.3491 120.334 34.3868 123.701 34.3868 123.701C34.3868 123.701 37.04 118.253 35.5692 112.816C34.0984 107.379 29.0607 104.012 29.0607 104.012C29.0607 104.012 26.4076 109.46 27.8783 114.897Z" fill="#3F3D56"/>
<path d="M30.0395 113.728C34.0754 117.657 34.5683 123.696 34.5683 123.696C34.5683 123.696 28.5179 123.366 24.4821 119.437C20.4463 115.509 19.9533 109.469 19.9533 109.469C19.9533 109.469 26.0037 109.8 30.0395 113.728Z" fill="#F1B650"/>
<path d="M161.791 128.872H19.6777V129.31H161.791V128.872Z" fill="#2F2E41"/>
<path d="M36.3786 129.091H30.6765V123.389H36.3786V129.091ZM31.1152 128.652H35.94V123.828H31.1152V128.652Z" fill="#3F3D56"/>
<path d="M48.5167 24.0033H0.192398V72.3276H48.5167V24.0033Z" fill="#3F3D56"/>
<path d="M48.5167 36.0262V37.1353C47.7802 36.6473 47.1857 35.9735 46.7934 35.1819C46.15 33.8661 46.1704 32.3494 46.1907 30.8822C46.214 29.1385 46.2373 27.4937 45.1311 26.4224C43.9143 25.2463 41.9667 25.4123 40.0833 25.5724C39.862 25.5899 39.6408 25.6102 39.4224 25.6277C37.5331 25.7703 35.4284 25.2929 34.4066 24.0033H35.6817C36.6161 24.6321 38.0455 24.8533 39.3584 24.7543C39.5709 24.7398 39.7892 24.7194 40.0076 24.7019C41.99 24.5331 44.2374 24.341 45.7366 25.7936C47.1165 27.1269 47.0903 29.0424 47.0641 30.8939C47.0437 32.2592 47.0262 33.6682 47.5794 34.7977C47.8088 35.2643 48.1272 35.6816 48.5167 36.0262Z" fill="#F1B650"/>
<path d="M48.5167 43.6969V44.9953C48.3047 44.7182 48.0669 44.4618 47.8064 44.2297C46.3043 42.9051 44.1472 42.614 42.0628 42.3287C41.7921 42.2938 41.5272 42.2559 41.2623 42.2181C37.8825 41.7319 35.7865 40.5704 34.8578 38.6753C34.2145 37.3595 34.2349 35.8428 34.2552 34.3756C34.2785 32.6318 34.3018 30.987 33.1956 29.9158C31.9788 28.7397 30.0312 28.9056 28.1477 29.0657C27.9265 29.0832 27.7053 29.1035 27.4869 29.121C25.0591 29.3044 22.2731 28.4631 21.8918 26.1895C21.7608 25.4093 21.9558 24.6932 22.244 24.0033H23.1989C22.8786 24.6961 22.6399 25.3657 22.7535 26.044C23.0417 27.779 25.3764 28.402 27.4229 28.2477C27.6354 28.2331 27.8537 28.2127 28.0721 28.1953C30.0545 28.0264 32.3019 27.8343 33.8011 29.2869C35.181 30.6202 35.1548 32.5357 35.1286 34.3872C35.1082 35.7525 35.0907 37.1615 35.6438 38.291C36.4357 39.9096 38.3133 40.911 41.3874 41.3535C41.6494 41.3913 41.9144 41.4292 42.1793 41.4641C44.3917 41.764 46.6827 42.0754 48.3857 43.5747C48.4294 43.6125 48.4731 43.6533 48.5167 43.6969Z" fill="#F1B650"/>
<path d="M48.5167 65.5826V67.3758C47.4658 66.258 46.5867 64.7238 45.9142 62.8054C45.7716 62.3979 45.6347 61.9816 45.4979 61.5653C44.7439 59.2859 43.9638 56.9308 42.1065 55.4258C40.1211 53.8188 37.277 53.4637 34.526 53.1202C34.1737 53.0765 33.8215 53.0328 33.4721 52.9863C29.0123 52.3953 26.2497 50.9892 25.0241 48.6895C24.1741 47.0913 24.2003 45.2514 24.2265 43.4728C24.2585 41.3593 24.2905 39.3623 22.8291 38.0639C21.2251 36.6375 18.6546 36.8383 16.1714 37.0334C15.8774 37.0567 15.5863 37.08 15.301 37.1004C12.0959 37.3216 8.41917 36.3027 7.91845 33.5459C7.67101 32.1951 8.30272 30.9987 8.91114 29.8401C9.26048 29.1763 9.59233 28.5446 9.76118 27.8954C10.1163 26.5592 9.67676 25.0542 8.70153 24.0033H10.128C10.5396 24.6011 10.8197 25.2795 10.9496 25.9936C11.0796 26.7077 11.0565 27.4413 10.8819 28.1458C10.6811 28.9056 10.3085 29.6159 9.94749 30.3029C9.39146 31.3568 8.87038 32.3523 9.05378 33.3712C9.43805 35.473 12.5151 36.2299 15.2137 36.0436C15.4961 36.0232 15.7843 35.9999 16.0725 35.9796C18.6866 35.7729 21.6501 35.5429 23.6297 37.3041C25.4491 38.9198 25.4142 41.2429 25.3793 43.4873C25.356 45.1437 25.3298 46.8526 26.0575 48.2237C27.1026 50.1829 29.5829 51.3997 33.6381 51.9382C33.9816 51.9848 34.3309 52.0285 34.6802 52.0722C37.603 52.4361 40.6218 52.8116 42.8663 54.631C44.971 56.3369 45.8007 58.8376 46.5983 61.2567C46.7351 61.6701 46.8719 62.0776 47.0117 62.4823C47.3818 63.5746 47.8874 64.6161 48.5167 65.5826Z" fill="#F1B650"/>
<path d="M0.192398 43.5164C1.51986 45.1234 4.3349 45.7172 6.85883 45.5426C7.14412 45.5222 7.43523 45.4989 7.72925 45.4756C10.2124 45.2806 12.7829 45.0797 14.3869 46.5062C15.8483 47.8045 15.8163 49.8015 15.7843 51.915C15.7581 53.6937 15.7319 55.5335 16.5819 57.1317C17.8075 59.4315 20.5701 60.8375 25.0299 61.4285C25.3793 61.4751 25.7315 61.5187 26.0838 61.5624C28.8348 61.9059 31.6789 62.2611 33.6643 63.868C35.5216 65.373 36.3018 67.7281 37.0557 70.0075C37.1926 70.4238 37.3294 70.8401 37.472 71.2476C37.603 71.6232 37.7427 71.9812 37.8883 72.3277H39.1343C38.9159 71.8531 38.7296 71.3786 38.5695 70.9245C38.4298 70.5199 38.2929 70.1123 38.1561 69.6989C37.3585 67.2798 36.5288 64.7792 34.4241 63.0733C32.1796 61.2538 29.1608 60.8783 26.2381 60.5144C25.8887 60.4707 25.5394 60.4271 25.1959 60.3805C21.1407 59.8419 18.6605 58.6251 17.6154 56.6659C16.8876 55.2948 16.9138 53.586 16.9371 51.9296C16.972 49.6851 17.007 47.362 15.1875 45.7464C13.208 43.9851 10.2445 44.2151 7.63028 44.4218C7.34208 44.4422 7.05388 44.4655 6.7715 44.4859C4.07291 44.6722 0.99587 43.9153 0.611604 41.8135C0.428211 40.7946 0.949293 39.799 1.50531 38.7452C1.86629 38.0581 2.23891 37.3478 2.43978 36.588C2.98707 34.5095 2.06425 32.2068 0.192405 30.9492V32.3757C1.2142 33.4295 1.67998 34.9695 1.319 36.3377C1.15016 36.9869 0.818292 37.6186 0.46896 38.2823C0.375805 38.4599 0.282647 38.6345 0.192405 38.815L0.192398 43.5164Z" fill="#F1B650"/>
<path d="M21.5686 72.3277H20.3605C20.2965 72.1385 20.2353 71.9464 20.1713 71.7542C19.4173 69.4748 18.6371 67.1197 16.7799 65.6147C14.7945 64.0078 11.9503 63.6526 9.19935 63.3091C8.8471 63.2654 8.49487 63.2218 8.14553 63.1752C4.20972 62.6541 1.59264 61.4955 0.192398 59.6498V56.7533C0.28239 57.3316 0.464198 57.8917 0.730945 58.4126C1.77604 60.3718 4.25631 61.5886 8.31147 62.1272C8.65498 62.1738 9.00432 62.2174 9.35364 62.2611C12.2764 62.625 15.2952 63.0005 17.5397 64.82C19.6444 66.5259 20.4741 69.0265 21.2717 71.4456C21.3707 71.7426 21.4668 72.0366 21.5686 72.3277Z" fill="#F1B650"/>
<path d="M114.017 24.0033H65.6923V72.3276H114.017V24.0033Z" fill="#3F3D56"/>
<path d="M88.9811 27.4966C88.9809 30.2192 88.2603 32.8932 86.8926 35.2473C85.5248 37.6013 83.5585 39.5516 81.1933 40.9C78.8282 42.2484 76.1483 42.9471 73.4259 42.925C70.7034 42.9029 68.0352 42.1608 65.6923 40.7742V24.0033H88.5823C88.8487 25.1486 88.9825 26.3207 88.9811 27.4966Z" fill="#F1B650"/>
<path d="M101.499 46.4188C106.644 46.4188 110.814 42.2481 110.814 37.1033C110.814 31.9584 106.644 27.7877 101.499 27.7877C96.354 27.7877 92.1833 31.9584 92.1833 37.1033C92.1833 42.2481 96.354 46.4188 101.499 46.4188Z" fill="#F1B650"/>
<path d="M80.5389 63.5943C84.2367 63.5943 87.2344 60.5966 87.2344 56.8988C87.2344 53.2009 84.2367 50.2032 80.5389 50.2032C76.8411 50.2032 73.8434 53.2009 73.8434 56.8988C73.8434 60.5966 76.8411 63.5943 80.5389 63.5943Z" fill="#F1B650"/>
<path d="M114.017 64.4095V72.3277H104.436C104.029 71.054 104.013 69.6877 104.39 68.4047C104.766 67.1217 105.518 65.9809 106.549 65.1291C107.58 64.2772 108.842 63.7535 110.173 63.6252C111.503 63.497 112.842 63.7701 114.017 64.4095Z" fill="#F1B650"/>
<path d="M97.4233 58.3543C98.388 58.3543 99.17 57.5723 99.17 56.6076C99.17 55.643 98.388 54.861 97.4233 54.861C96.4587 54.861 95.6767 55.643 95.6767 56.6076C95.6767 57.5723 96.4587 58.3543 97.4233 58.3543Z" fill="#F1B650"/>
<path d="M179.808 24.0033H131.483V72.3276H179.808V24.0033Z" fill="#3F3D56"/>
<path d="M155.063 24.0033V43.7988H131.483V44.9633H156.228V24.0033H155.063Z" fill="#F1B650"/>
<path d="M177.808 72.3277L179.808 69.4835V67.4603L176.384 72.3277H177.808ZM169.686 51.49L158.97 66.7296L166.932 72.3277H168.955L160.591 66.4473L169.968 53.1115L179.808 60.0312V58.6077L169.686 51.49Z" fill="#F1B650"/>
<path d="M151.861 49.5599L145.687 55.7344L151.861 61.9088L158.035 55.7344L151.861 49.5599ZM147.331 55.7344L151.861 51.2047L156.391 55.7344L151.861 60.2641L147.331 55.7344Z" fill="#F1B650"/>
<path d="M23.8779 28.4276C26.3004 28.4276 28.2641 26.4638 28.2641 24.0414C28.2641 21.6189 26.3004 19.6552 23.8779 19.6552C21.4555 19.6552 19.4917 21.6189 19.4917 24.0414C19.4917 26.4638 21.4555 28.4276 23.8779 28.4276Z" fill="#F2F2F2"/>
<path d="M91.6448 28.4276C94.0672 28.4276 96.031 26.4638 96.031 24.0414C96.031 21.6189 94.0672 19.6552 91.6448 19.6552C89.2224 19.6552 87.2586 21.6189 87.2586 24.0414C87.2586 26.4638 89.2224 28.4276 91.6448 28.4276Z" fill="#F2F2F2"/>
<path d="M156.341 28.4276C158.764 28.4276 160.728 26.4638 160.728 24.0414C160.728 21.6189 158.764 19.6552 156.341 19.6552C153.919 19.6552 151.955 21.6189 151.955 24.0414C151.955 26.4638 153.919 28.4276 156.341 28.4276Z" fill="#F2F2F2"/>
<path d="M87.149 49.591C89.4503 49.591 91.3159 47.7254 91.3159 45.4241C91.3159 43.1228 89.4503 41.2572 87.149 41.2572C84.8477 41.2572 82.9821 43.1228 82.9821 45.4241C82.9821 47.7254 84.8477 49.591 87.149 49.591Z" fill="#FFB8B8"/>
<path d="M84.9558 47.3979C84.9558 47.3979 86.0524 53.0999 85.6138 54.1965C85.1752 55.293 91.7545 53.7579 91.7545 53.7579C91.7545 53.7579 90.4386 48.0558 90.6579 46.7399C90.8772 45.4241 84.9558 47.3979 84.9558 47.3979Z" fill="#FFB8B8"/>
<path d="M77.7187 67.1359L78.1572 73.0572L80.3341 82.3566L81.0083 84.8999L82.1048 80.9523L81.0083 71.9606L80.6358 67.9124L77.7187 67.1359Z" fill="#FFB8B8"/>
<path d="M100.746 66.2585V72.3992C100.746 72.3992 100.088 80.2944 98.7724 82.2682C97.4565 84.242 97.0179 74.373 97.0179 74.373L98.049 67.1358L100.746 66.2585Z" fill="#FFB8B8"/>
<path d="M81.2276 85.3386C81.2276 85.3386 80.131 86.6544 81.0083 100.032C81.8855 113.41 80.5697 123.06 83.4207 123.06C83.4207 123.06 82.5434 125.911 84.9559 126.13C87.3683 126.35 88.4648 126.569 88.6841 125.911C88.9035 125.253 89.3421 122.183 88.6841 122.183C88.6841 122.183 88.6841 123.06 89.1228 119.551C89.5614 116.042 89.5614 99.3744 90.6579 97.1813L94.1669 105.296C94.1669 105.296 94.1669 109.024 94.8248 110.779C95.4828 112.533 96.5793 122.621 96.5793 122.621L96.36 124.156C96.36 124.156 101.623 125.034 101.843 124.156C102.062 123.279 102.062 121.963 101.843 121.525C101.623 121.086 101.623 121.086 102.062 120.209C102.501 119.332 102.501 118.674 102.281 118.016C102.062 117.358 102.062 103.103 102.062 103.103C102.062 103.103 101.623 85.7772 98.9917 84.8999C96.36 84.0227 81.2276 85.3386 81.2276 85.3386Z" fill="#2F2E41"/>
<path d="M84.0786 124.376L82.3241 127.446C82.3241 127.446 79.5827 126.459 80.131 128.981C84.8462 129.31 88.1358 128.872 88.1358 128.872C88.1358 128.872 89.2324 129.31 89.4517 128.652C89.671 127.994 88.9034 125.692 88.2455 125.692C87.5876 125.692 84.0786 124.376 84.0786 124.376Z" fill="#2F2E41"/>
<path d="M96.7986 123.499C96.7986 123.499 95.0441 127.446 95.702 127.665C96.36 127.885 102.281 128.762 102.72 128.981C103.159 129.201 105.352 129.42 105.571 128.104C105.79 126.788 104.474 126.35 104.474 126.35C104.474 126.35 102.062 125.911 101.404 123.718C100.746 121.525 96.7986 123.499 96.7986 123.499Z" fill="#2F2E41"/>
<path d="M92.1931 53.0999C92.1931 53.0999 86.2717 52.0034 84.9559 53.0999C83.64 54.1965 78.1573 56.3896 78.1573 57.4861C78.1573 58.5827 81.0083 69.3289 81.0083 69.3289C81.0083 69.3289 79.4731 85.5578 81.0083 85.9965C82.5435 86.4351 85.1752 85.1192 88.2455 86.6544C91.3159 88.1896 100.088 85.3385 100.088 85.3385C100.088 85.3385 96.7986 71.3027 97.6759 68.6709C98.5531 66.0392 99.211 57.0475 99.211 57.0475C99.211 57.0475 95.4828 53.0999 92.1931 53.0999Z" fill="#8985A8"/>
<path d="M79.6924 56.8282L78.1572 57.2669C78.1572 57.2669 74.8676 67.5745 76.1834 68.0131C77.4993 68.4517 81.2276 69.3289 81.6662 69.3289C82.1048 69.3289 79.6924 56.8282 79.6924 56.8282Z" fill="#8985A8"/>
<path d="M95.702 55.7317L99.211 57.0476C99.211 57.0476 103.817 65.6007 102.72 66.6972C101.623 67.7938 96.7986 68.8903 96.7986 68.8903L95.702 55.7317Z" fill="#8985A8"/>
<path d="M87.0223 40.2774C86.6758 40.2146 86.3196 40.2303 85.98 40.3234C85.7082 40.4437 85.4579 40.6079 85.2392 40.8093C84.8424 41.1255 84.4186 41.4063 83.9727 41.6484C83.6173 41.8414 83.2353 42.0199 82.9872 42.3392C82.8699 42.5006 82.7762 42.6779 82.709 42.8657C82.2816 43.9572 82.1668 45.1462 82.3773 46.2994C82.401 46.4632 82.4503 46.6223 82.5234 46.7708C82.7514 47.1908 83.2548 47.3563 83.6789 47.5764C84.4841 47.9944 85.0944 48.6982 85.7548 49.3202C86.0001 49.5651 86.2758 49.7775 86.575 49.9523C87.5172 50.466 88.6688 50.2984 89.7264 50.1168C89.8013 50.1166 89.8755 50.1017 89.9446 50.0727C90.0138 50.0438 90.0765 50.0014 90.1292 49.9481C90.1819 49.8948 90.2235 49.8316 90.2516 49.7622C90.2798 49.6927 90.2939 49.6184 90.2932 49.5434L91.128 45.7887C91.2793 45.2324 91.3513 44.6575 91.3419 44.0811C91.2837 43.1696 90.7903 41.9071 90.1213 41.2596C89.3419 40.5053 88.0412 40.3852 87.0223 40.2774Z" fill="#2F2E41"/>
<path d="M58.8009 125.784C59.7567 125.784 60.5315 125.009 60.5315 124.053C60.5315 123.097 59.7567 122.323 58.8009 122.323C57.845 122.323 57.0702 123.097 57.0702 124.053C57.0702 125.009 57.845 125.784 58.8009 125.784Z" fill="#F1B650"/>
<path d="M58.8009 129.053C57.812 129.053 56.8454 128.76 56.0232 128.21C55.201 127.661 54.5602 126.88 54.1818 125.967C53.8034 125.053 53.7043 124.048 53.8973 123.078C54.0902 122.108 54.5664 121.217 55.2656 120.518C55.9648 119.819 56.8556 119.343 57.8255 119.15C58.7953 118.957 59.8006 119.056 60.7142 119.434C61.6278 119.813 62.4086 120.453 62.958 121.276C63.5073 122.098 63.8006 123.064 63.8006 124.053C63.7991 125.379 63.2719 126.65 62.3346 127.587C61.3973 128.524 60.1264 129.051 58.8009 129.053ZM58.8009 119.438C57.8881 119.438 56.9958 119.709 56.2369 120.216C55.4779 120.723 54.8864 121.444 54.5371 122.287C54.1878 123.13 54.0964 124.058 54.2745 124.954C54.4525 125.849 54.8921 126.671 55.5375 127.317C56.183 127.962 57.0053 128.402 57.9005 128.58C58.7958 128.758 59.7237 128.666 60.567 128.317C61.4103 127.968 62.1311 127.376 62.6382 126.617C63.1453 125.858 63.416 124.966 63.416 124.053C63.4146 122.83 62.9279 121.657 62.0627 120.791C61.1975 119.926 60.0245 119.44 58.8009 119.438Z" fill="#2F2E41"/>
<path d="M143.016 126.003C143.972 126.003 144.747 125.228 144.747 124.273C144.747 123.317 143.972 122.542 143.016 122.542C142.06 122.542 141.285 123.317 141.285 124.273C141.285 125.228 142.06 126.003 143.016 126.003Z" fill="#F1B650"/>
<path d="M143.016 129.272C142.027 129.272 141.061 128.979 140.238 128.43C139.416 127.88 138.775 127.099 138.397 126.186C138.018 125.272 137.919 124.267 138.112 123.297C138.305 122.327 138.781 121.436 139.481 120.737C140.18 120.038 141.071 119.562 142.041 119.369C143.01 119.176 144.016 119.275 144.929 119.653C145.843 120.032 146.624 120.673 147.173 121.495C147.722 122.317 148.016 123.284 148.016 124.273C148.014 125.598 147.487 126.869 146.55 127.806C145.612 128.743 144.342 129.271 143.016 129.272ZM143.016 119.657C142.103 119.657 141.211 119.928 140.452 120.435C139.693 120.942 139.102 121.663 138.752 122.506C138.403 123.35 138.312 124.278 138.49 125.173C138.668 126.068 139.107 126.89 139.753 127.536C140.398 128.181 141.22 128.621 142.116 128.799C143.011 128.977 143.939 128.886 144.782 128.536C145.625 128.187 146.346 127.595 146.853 126.837C147.36 126.078 147.631 125.185 147.631 124.273C147.63 123.049 147.143 121.876 146.278 121.011C145.413 120.146 144.24 119.659 143.016 119.657Z" fill="#2F2E41"/>
<path d="M143.016 116.354C143.972 116.354 144.747 115.579 144.747 114.623C144.747 113.667 143.972 112.892 143.016 112.892C142.06 112.892 141.285 113.667 141.285 114.623C141.285 115.579 142.06 116.354 143.016 116.354Z" fill="#F1B650"/>
<path d="M143.016 119.623C142.027 119.623 141.061 119.329 140.238 118.78C139.416 118.231 138.775 117.45 138.397 116.536C138.018 115.623 137.919 114.617 138.112 113.647C138.305 112.678 138.781 111.787 139.481 111.088C140.18 110.388 141.071 109.912 142.041 109.719C143.01 109.526 144.016 109.625 144.929 110.004C145.843 110.382 146.624 111.023 147.173 111.845C147.722 112.667 148.016 113.634 148.016 114.623C148.014 115.948 147.487 117.219 146.55 118.157C145.612 119.094 144.342 119.621 143.016 119.623ZM143.016 110.008C142.103 110.008 141.211 110.278 140.452 110.786C139.693 111.293 139.102 112.013 138.752 112.857C138.403 113.7 138.312 114.628 138.49 115.523C138.668 116.418 139.107 117.241 139.753 117.886C140.398 118.532 141.22 118.971 142.116 119.149C143.011 119.327 143.939 119.236 144.782 118.887C145.625 118.537 146.346 117.946 146.853 117.187C147.36 116.428 147.631 115.536 147.631 114.623C147.63 113.399 147.143 112.226 146.278 111.361C145.413 110.496 144.24 110.009 143.016 110.008Z" fill="#2F2E41"/>
</g>
<defs>
<clipPath id="clip0_184_813">
<rect width="179.615" height="109.655" fill="white" transform="translate(0.19239 19.6552)"/>
</clipPath>
</defs>
</svg>
