<svg width="194" height="158" viewBox="0 0 194 158" fill="none" xmlns="http://www.w3.org/2000/svg">
<path d="M127.374 46.152C151.493 63.006 190.722 71.8689 193.337 83.3471C195.952 94.9705 162.099 109.064 138.126 124.756C114.007 140.447 99.9135 157.737 85.5294 157.883C71.1454 158.173 56.6161 141.319 39.0356 125.482C21.6004 109.79 1.11399 95.2611 0.532815 80.1506C-0.048359 65.0401 19.2757 49.3484 36.7109 32.4944C54.2914 15.6403 69.9831 -2.52134 82.1877 0.965703C94.5376 4.30745 103.401 29.2979 127.374 46.152Z" fill="#0073BC" fill-opacity="0.1"/>
<g clip-path="url(#clip0_184_899)">
<path d="M28.2267 140.414C28.0716 140.421 27.9181 140.38 27.7869 140.297C27.6558 140.214 27.5533 140.093 27.4934 139.949C27.4335 139.806 27.4191 139.648 27.4521 139.496C27.4851 139.345 27.564 139.207 27.678 139.101C27.6971 139.026 27.7108 138.971 27.7299 138.895C27.5815 138.518 27.3238 138.194 26.9901 137.965C26.6563 137.735 26.2615 137.61 25.8564 137.606C25.4513 137.603 25.0542 137.72 24.7162 137.943C24.3781 138.166 24.1144 138.486 23.9589 138.86C23.0617 140.96 21.9004 143.134 22.4779 145.447C18.6632 137.363 19.9605 127.306 25.5981 120.392C27.1565 119.533 28.4195 118.008 28.7483 116.237C27.9771 116.499 27.0155 115.871 27.5954 115.059C27.8467 114.748 28.1005 114.44 28.3518 114.13C25.4222 111.01 21.9316 115.913 25.1563 120.124C24.1014 121.447 23.1877 122.876 22.43 124.389C22.605 122.783 22.3962 121.158 21.8207 119.648C21.2375 118.241 20.1443 117.056 19.1816 115.84C18.0112 114.358 15.6022 115.042 15.4447 116.922C16.5249 117.277 16.6652 118.838 15.4296 119.051C15.7533 122.55 18.039 125.765 21.1872 127.3C20.0246 130.562 19.5706 134.034 19.8555 137.485C19.2998 133.452 14.9702 132.473 11.9439 130.87C11.7513 130.747 11.5269 130.682 11.2981 130.684C11.0693 130.685 10.846 130.754 10.6554 130.88C10.4648 131.007 10.3151 131.186 10.2247 131.396C10.1343 131.607 10.107 131.839 10.1461 132.064C10.5638 132.234 10.9636 132.445 11.3396 132.694C11.5157 132.812 11.651 132.982 11.7267 133.181C11.8025 133.379 11.815 133.596 11.7627 133.801C11.7103 134.007 11.5956 134.192 11.4343 134.33C11.2729 134.468 11.0729 134.552 10.8615 134.572C12.3869 138.348 16.3308 140.883 20.3813 140.868C20.7706 142.56 21.3345 144.206 22.0642 145.781H28.076C28.0976 145.715 28.117 145.646 28.1364 145.579C27.5799 145.614 27.0212 145.581 26.4729 145.48C27.9451 143.737 29.0837 142.847 28.2269 140.414L28.2267 140.414Z" fill="#F2F2F2"/>
<path d="M60.0948 141.102H62.5737L63.753 131.541L60.0944 131.541L60.0948 141.102Z" fill="#FFB6B6"/>
<path d="M63.3985 141.325V139.644L62.7468 139.684L60.0941 139.841L59.4802 139.879L59.0109 145.507L58.9857 145.809H60.7458L60.8024 145.509L61.058 144.147L61.718 145.509L61.8626 145.809H66.5289C66.8065 145.807 67.0723 145.696 67.2685 145.499C67.4646 145.303 67.5753 145.037 67.5765 144.759C67.7735 143.839 63.893 141.851 63.3985 141.325Z" fill="#2F2E41"/>
<path d="M31.0546 138.404L33.2105 139.627L38.9546 131.893L35.7724 130.088L31.0546 138.404Z" fill="#FFB6B6"/>
<path d="M33.8188 140.227L34.6464 138.767L34.0639 138.479L31.6774 137.308L31.1242 137.036L28.4066 141.015L27.7675 141.949L28.4904 142.36L29.2971 142.819L30.3909 141.528L30.2693 143.37L34.0807 145.534H34.0828L34.328 145.673C34.57 145.809 34.8565 145.845 35.1244 145.77C35.3923 145.696 35.6198 145.518 35.757 145.277C36.3814 144.573 33.9885 140.931 33.8188 140.227Z" fill="#2F2E41"/>
<path d="M69.2572 61.8061C68.9408 61.8545 68.6386 61.971 68.3717 62.1477C68.1047 62.3243 67.8793 62.5568 67.711 62.8292C67.5427 63.1015 67.4356 63.4071 67.3971 63.7249C67.3586 64.0427 67.3895 64.3651 67.4878 64.6697L63.6947 67.9528L65.1276 70.7445L70.4191 66.0329C70.9196 65.8293 71.328 65.4491 71.567 64.9645C71.8059 64.4799 71.8588 63.9244 71.7156 63.4034C71.5724 62.8824 71.243 62.432 70.7899 62.1376C70.3368 61.8432 69.7915 61.7253 69.2572 61.8061Z" fill="#FFB6B6"/>
<path d="M65.2632 70.6226L63.8384 67.8296L63.6917 67.5425C62.1663 68.0789 59.17 69.8306 57.8039 70.7253C57.3031 70.0275 54.5184 66.9914 52.1109 65.8264C52.1109 65.8243 52.1088 65.8264 52.1088 65.8264C51.9433 65.7468 51.7798 65.6756 51.6185 65.6127C51.2456 65.4628 50.849 65.3805 50.4472 65.3697C50.2691 65.3687 50.0919 65.3941 49.9213 65.4451C49.7419 65.4976 49.5741 65.5836 49.4268 65.6986C49.0349 66.0003 48.7374 66.5263 48.5698 67.3393C48.5504 67.7251 48.6008 68.1112 48.7186 68.4791C49.3891 70.7022 52.0375 73.1852 52.9742 74.786C53.0663 75.0333 53.9862 77.468 55.4382 78.3313C55.5147 78.3777 55.5937 78.4197 55.675 78.457C55.7651 78.4696 55.8552 78.4801 55.9495 78.4842H55.9516C56.0987 78.4948 56.2463 78.4969 56.3937 78.4905C56.4691 78.4884 56.5467 78.4821 56.6242 78.4759C56.641 78.4738 56.6556 78.4738 56.6724 78.4717C57.1561 78.4181 57.633 78.3142 58.0951 78.1616C58.1475 78.1448 58.1999 78.128 58.2523 78.1092C58.6494 77.9738 59.039 77.8171 59.4193 77.6398C59.6394 77.5393 59.8573 77.4303 60.0752 77.3172C60.3392 77.1789 60.6032 77.0322 60.8609 76.8792C61.083 76.7514 61.3009 76.6173 61.5147 76.479V76.4769C61.565 76.4476 61.6152 76.4141 61.6655 76.3784H61.6676C63.5786 75.1359 65.1375 73.6923 65.4371 73.0951C65.6609 72.7619 65.8425 72.4023 65.9777 72.0244L65.2632 70.6226Z" fill="#2F2E41"/>
<path d="M56.591 80.4482C56.591 80.4482 61.8441 86.3588 60.5236 87.6792C59.2032 88.9997 57.1484 89.3464 57.1484 89.3464L54.6364 89.1527L56.591 80.4482Z" fill="#2F2E41"/>
<path d="M50.1469 64.5925C56.9222 68.5566 59.2004 72.3435 56.0671 79.964L50.1469 64.5925Z" fill="#2F2E41"/>
<path d="M44.0728 96.2831C43.5232 96.0274 42.1578 116.653 42.0465 117.172L34.2173 131.763L45.3611 136.758L52.6883 111.316L53.9095 120.679L52.2812 135.537L59.4844 137.279L64.4666 136.923L61.0064 94.6251L54.4403 82.7194L44.0728 96.2831Z" fill="#2F2E41"/>
<path d="M49.5628 65.1769C58.7624 72.0261 56.5161 72.1481 56.591 82.7196L60.9746 94.4345C60.9746 94.4345 45.521 100.42 43.9364 96.4583C42.3519 92.497 49.5628 65.1769 49.5628 65.1769Z" fill="#0073BC"/>
<path d="M56.7102 79.4984C56.6913 79.4314 56.6683 79.3538 56.6432 79.2721V79.27C56.6033 79.138 56.5572 78.9935 56.5028 78.8279C56.4692 78.7231 56.4336 78.61 56.3938 78.4906C56.3687 78.4151 56.3435 78.3376 56.3163 78.2559C55.5787 76.0286 54.091 71.8756 52.2849 67.2848V67.2827C52.067 66.7316 51.8449 66.175 51.6186 65.6127C51.5976 65.5625 51.5788 65.5101 51.5578 65.4598C51.4677 65.2356 51.3755 65.0093 51.2833 64.783L48.6369 62.1366L47.21 61.2063L44.0671 64.1083C44.0671 64.1083 44.0692 64.1586 44.0733 64.2571C44.1173 65.1518 44.3332 69.9836 44.3604 75.6954C44.3667 77.1349 44.3625 78.631 44.3374 80.1333V80.1731C44.3311 80.567 44.3374 80.8729 44.3562 81.1202C44.3653 81.2959 44.3856 81.4709 44.417 81.644C44.5343 82.2894 44.7501 82.4402 44.8654 83.7833C44.8654 83.7833 42.3929 86.9703 43.8282 89.6984C43.9419 89.7154 44.0569 89.7224 44.1718 89.7194C44.6789 89.7278 45.8606 89.6963 49.1105 89.6942C49.6741 89.69 50.2985 89.69 50.9921 89.6921C55.5368 89.6921 53.0874 87.0625 55.5159 84.6676C55.5683 84.6152 55.6206 84.5649 55.6772 84.5146C55.8495 84.3587 56.0314 84.2138 56.222 84.0809L56.6285 82.8195L56.7584 82.4151L56.7605 82.3627L56.7731 81.8033L56.8003 80.6886L56.8192 79.9468C56.7954 79.7946 56.759 79.6446 56.7102 79.4984Z" fill="#2F2E41"/>
<path opacity="0.2" d="M45.3986 71.1875L44.6768 75.6924L49.5628 77.7077L45.3986 71.1875Z" fill="black"/>
<path d="M52.615 51.3809C58.0809 54.4912 53.5936 62.6979 48.0258 59.7756C42.56 56.6653 47.0473 48.4587 52.615 51.3809Z" fill="#FFB6B6"/>
<path opacity="0.2" d="M42.3051 79.8497C45.2035 83.2654 50.1427 83.7586 53.8938 81.4664L42.3051 79.8497Z" fill="black"/>
<path d="M55.5377 53.1054C55.1547 53.6035 54.3546 53.37 52.7876 53.7254C52.791 53.1943 52.7297 52.6647 52.6049 52.1484C52.4883 52.7877 52.2328 53.3935 51.8564 53.9232C50.4957 54.0741 52.1637 58.2077 51.467 61.2468C50.5694 54.8352 48.6815 56.515 49.6352 57.7867C50.2458 58.6008 49.8388 61.0432 48.007 59.822C44.9846 61.2585 40.6798 54.1231 45.4508 50.7767C45.3656 48.9679 47.3782 48.6821 48.6176 49.2383C51.6253 46.9977 55.0617 49.8686 55.5377 53.1054Z" fill="#2F2E41"/>
<path d="M58.6247 76.4543C60.1782 76.4234 68.5229 76.1839 69.8913 76.2428C69.9687 75.9718 72.5628 79.2962 72.6259 79.3168C72.6679 79.3612 72.6986 79.4151 72.7153 79.4739C72.732 79.5327 72.7342 79.5947 72.7218 79.6545C72.7093 79.7144 72.6826 79.7703 72.6438 79.8176C72.6051 79.8649 72.5554 79.9021 72.4992 79.926C72.3467 80.0187 58.8939 79.7698 58.7309 79.8023C58.6604 79.8011 58.5917 79.7801 58.5326 79.7416C58.4735 79.7031 58.4265 79.6487 58.397 79.5847L58.3071 79.3833C58.2977 79.0388 58.1849 77.2779 58.2862 76.9769C58.2613 76.9204 58.2509 76.8585 58.2559 76.797C58.2608 76.7355 58.281 76.6761 58.3145 76.6243C58.3481 76.5725 58.394 76.5298 58.4481 76.5002C58.5023 76.4705 58.5629 76.4547 58.6247 76.4543Z" fill="#3F3D56"/>
<path opacity="0.17" d="M58.307 79.3829C58.386 79.5727 58.487 79.811 58.7309 79.8023L72.3571 79.9552C72.4215 79.9545 72.4847 79.9372 72.5405 79.905C72.5964 79.8728 72.643 79.8268 72.6759 79.7714C72.7089 79.716 72.727 79.6531 72.7286 79.5886C72.7302 79.5242 72.7152 79.4605 72.685 79.4035L58.307 79.3829Z" fill="black"/>
<path d="M69.8276 76.202C69.9743 75.9484 73.6172 57.9228 73.9213 57.7721L76.4085 54.7295L76.6308 54.5623C76.9399 54.3925 77.6815 54.5073 77.6147 54.9795C77.0304 57.7809 73.272 73.7364 73.1897 76.224L72.7372 79.393C72.7292 79.4469 72.7099 79.4986 72.6807 79.5446C72.6514 79.5906 72.6128 79.63 72.5674 79.6602C72.522 79.6904 72.4708 79.7107 72.4171 79.7199C72.3633 79.7291 72.3083 79.7269 72.2554 79.7135C72.1257 79.6996 72.0019 79.652 71.8962 79.5756C71.7905 79.4993 71.7065 79.3966 71.6525 79.2779C71.6186 79.1661 69.6573 76.267 69.8276 76.202Z" fill="#3F3D56"/>
<path opacity="0.17" d="M76.4091 54.7296L71.652 79.2785C71.8111 79.6812 72.5555 79.9633 72.7289 79.4351C72.7319 79.4344 77.6091 54.9946 77.6141 54.98C77.666 54.3918 76.6941 54.3731 76.4091 54.7296Z" fill="black"/>
<path d="M76.2657 55.7335L73.8498 59.1009L71.1381 71.98L72.3986 73.0796L76.2657 55.7335Z" fill="#0073BC"/>
<path d="M60.0753 77.3171C60.025 76.9274 59.9286 76.5691 59.6458 76.5963C59.2288 76.5942 59.3189 77.162 59.4195 77.6398C59.4731 77.8283 59.5054 78.0223 59.5159 78.2181L60.1843 78.1908C60.1247 77.903 60.0883 77.6108 60.0753 77.3171Z" fill="#2F2E41"/>
<path d="M64.0146 77.2249C64.0104 77.1139 64.0167 76.9714 64.002 76.8373C63.9789 76.6152 63.9035 76.4224 63.6499 76.4371C63.6031 76.4365 63.5567 76.4458 63.5137 76.4643C63.2434 76.5858 63.3545 77.0782 63.3503 77.3171L63.5682 77.3087L64.0188 77.292C64.0167 77.271 64.0146 77.248 64.0146 77.2249Z" fill="#2F2E41"/>
<path d="M65.3492 77.1704C65.3387 76.8771 65.3911 76.3595 64.9845 76.3826C64.5445 76.391 64.6891 76.9902 64.6849 77.2647L64.9007 77.2563L65.3533 77.2375C65.3513 77.2165 65.3492 77.1935 65.3492 77.1704Z" fill="#2F2E41"/>
<path d="M66.684 77.1181C66.6735 76.8226 66.7259 76.3051 66.3194 76.3302C65.8793 76.3386 66.0239 76.9379 66.0197 77.2103L66.2377 77.2019L66.6882 77.1851C66.6861 77.1642 66.684 77.1411 66.684 77.1181Z" fill="#2F2E41"/>
<path d="M68.0187 77.0636C68.0082 76.7703 68.0606 76.2527 67.6541 76.2758C67.214 76.2862 67.3586 76.8834 67.3544 77.1579L67.5703 77.1495L68.0229 77.1307C68.0208 77.1097 68.0187 77.0867 68.0187 77.0636Z" fill="#2F2E41"/>
<path d="M69.3534 77.0111C69.345 76.7471 69.3848 76.3071 69.104 76.2338H69.1019C69.0651 76.2235 69.0268 76.2199 68.9887 76.2233C68.9575 76.2228 68.9265 76.227 68.8965 76.2359H68.8944C68.5717 76.326 68.6933 76.8519 68.6891 77.1033L68.907 77.0949L69.3575 77.0782C69.3554 77.0572 69.3534 77.0342 69.3534 77.0111Z" fill="#2F2E41"/>
<path d="M61.5147 76.479V76.4769C61.5114 76.4458 61.5058 76.415 61.498 76.3847C61.4645 76.2066 61.3785 76.0683 61.1627 76.0809C60.9511 76.0851 60.8756 76.2234 60.8526 76.3994C60.8416 76.5592 60.8444 76.7198 60.861 76.8792C60.863 76.9106 60.863 76.9379 60.863 76.963L61.5315 76.9358C61.521 76.8184 61.5315 76.6424 61.5147 76.479Z" fill="#2F2E41"/>
<path d="M62.839 76.3511C62.8055 76.1646 62.7196 76.0138 62.4974 76.0285C62.2774 76.0326 62.2041 76.1835 62.1852 76.3679C62.1794 76.5482 62.1836 76.7287 62.1978 76.9085L62.8662 76.8812C62.8537 76.7471 62.8704 76.5313 62.839 76.3511Z" fill="#2F2E41"/>
<path d="M64.1759 76.3198C64.1465 76.1228 64.0648 75.9615 63.8322 75.9741C63.6038 75.9783 63.5346 76.1396 63.5179 76.3345C63.5133 76.3776 63.5119 76.421 63.5137 76.4644C63.5158 76.609 63.5346 76.7556 63.5326 76.8562L64.0019 76.8373L64.201 76.829C64.1884 76.6991 64.2052 76.4958 64.1759 76.3198Z" fill="#2F2E41"/>
<path d="M61.1503 77.2836C60.7102 77.292 60.8527 77.8912 60.8506 78.1636L61.5191 78.1385C61.4939 77.864 61.5903 77.2564 61.1503 77.2836Z" fill="#2F2E41"/>
<path d="M62.485 77.2292C62.0449 77.2375 62.1874 77.8368 62.1853 78.1113L62.8538 78.084C62.8286 77.8117 62.925 77.204 62.485 77.2292Z" fill="#2F2E41"/>
<path d="M64.0145 77.2249C63.9572 77.1865 63.8883 77.1694 63.8197 77.1767C63.7697 77.1739 63.72 77.1847 63.6757 77.2079C63.6314 77.2312 63.5943 77.266 63.5682 77.3087C63.4488 77.5015 63.5221 77.8619 63.52 78.0567L64.1885 78.0316C64.1675 77.8095 64.2283 77.3653 64.0145 77.2249Z" fill="#2F2E41"/>
<path d="M65.3492 77.1704C65.2921 77.1318 65.223 77.1147 65.1544 77.1222C65.1039 77.1193 65.0536 77.1303 65.0089 77.154C64.9642 77.1776 64.9268 77.213 64.9008 77.2563C64.7856 77.4512 64.8568 77.8095 64.8547 78.0043L65.5232 77.9771C65.5022 77.7571 65.563 77.315 65.3492 77.1704Z" fill="#2F2E41"/>
<path d="M66.684 77.1181C66.6267 77.0797 66.5577 77.0626 66.4891 77.0699C66.4392 77.0671 66.3894 77.0779 66.3451 77.1011C66.3008 77.1244 66.2637 77.1592 66.2376 77.2019C66.1182 77.3946 66.1915 77.755 66.1894 77.9499L66.8579 77.9248C66.837 77.7027 66.8977 77.2584 66.684 77.1181Z" fill="#2F2E41"/>
<path d="M68.0187 77.0636C67.9615 77.025 67.8924 77.0079 67.8238 77.0154C67.7733 77.0123 67.7229 77.0231 67.6782 77.0468C67.6334 77.0705 67.5961 77.106 67.5702 77.1495C67.455 77.3444 67.5262 77.7027 67.5241 77.8975L68.1926 77.8703C68.1717 77.6503 68.2324 77.2082 68.0187 77.0636Z" fill="#2F2E41"/>
<path d="M69.3534 77.0111C69.2961 76.9727 69.2271 76.9557 69.1585 76.9629C69.1086 76.9599 69.0587 76.9706 69.0144 76.9938C68.9701 77.0171 68.9329 77.0521 68.9071 77.0949C68.7897 77.2898 68.861 77.6481 68.8589 77.843L69.5273 77.8178C69.5064 77.5957 69.5672 77.1536 69.3534 77.0111Z" fill="#2F2E41"/>
<path d="M41.5134 48.4269C40.2965 55.909 33.7738 47.0509 30.7069 54.414C29.7427 57.0805 31.3971 58.988 32.4436 61.2013C32.6825 63.0202 30.3162 63.943 30.0683 65.6174C29.9993 69.4559 36.1922 69.221 37.9234 66.7993C39.7023 64.2641 37.5781 60.8627 38.6473 58.1415C40.1501 54.3635 46.2616 54.3354 46.7941 49.9401C45.7629 48.4717 42.9902 46.79 41.5134 48.4269Z" fill="#2F2E41"/>
<path d="M99.1246 145.863C98.9638 146.339 7.17346 146.339 7 145.864C7.16057 145.386 98.9509 145.386 99.1246 145.863Z" fill="#CCCCCC"/>
<path d="M46.4432 49.1581C46.4034 49.1749 46.3636 49.1917 46.328 49.2105H46.3259C46.2924 49.2273 46.2588 49.244 46.2253 49.2629C46.2211 49.265 46.219 49.2671 46.2149 49.2692C46.1708 49.2273 46.1268 49.1854 46.0807 49.1435C46.0688 49.2117 46.0717 49.2817 46.0891 49.3488L46.0954 49.374C46.1373 49.418 46.1813 49.4599 46.2274 49.5039C46.2693 49.4724 46.3091 49.4389 46.351 49.4075C46.3762 49.3865 46.4013 49.3656 46.4286 49.3446C46.4328 49.2901 46.4391 49.2273 46.4453 49.1581H46.4432ZM47.7046 46.8281C46.7701 46.6144 46.4684 47.836 46.3783 48.4248C46.0388 46.2876 44.6266 46.9601 45.1148 48.4185C45.2704 48.8503 45.5153 49.2444 45.8335 49.5751C45.8775 49.6254 45.9257 49.6757 45.976 49.726C45.9194 50.0193 46.2044 49.9439 46.5899 49.6736C46.8746 49.4711 47.1379 49.2401 47.3757 48.9842C48.1446 48.1775 48.7439 47.0984 47.7046 46.8281ZM47.734 48.0309C47.4456 48.4026 47.1222 48.7458 46.768 49.0555C46.657 49.156 46.5438 49.2524 46.4286 49.3446C46.4265 49.3635 46.4265 49.3802 46.4244 49.3949C46.4163 49.4153 46.4065 49.4349 46.395 49.4536C46.2777 49.6652 46.1457 49.55 46.0954 49.374C46.0912 49.3677 46.0849 49.3614 46.0807 49.3551C45.9133 49.1821 45.7676 48.9893 45.647 48.781C44.7816 47.2807 46.175 46.2603 46.1059 49.0618C46.0931 49.0875 46.0847 49.1151 46.0807 49.1435C46.0688 49.2117 46.0717 49.2817 46.0891 49.3488L46.0954 49.374C46.1373 49.418 46.1813 49.4599 46.2274 49.5039C46.2693 49.4724 46.3091 49.4389 46.351 49.4075C46.3762 49.3865 46.4013 49.3656 46.4286 49.3446C46.4328 49.2901 46.4391 49.2273 46.4453 49.1581V49.156C46.4998 48.5945 46.6486 47.5846 46.9231 47.3101C47.5265 46.847 48.3081 47.3478 47.734 48.0309ZM46.4432 49.1581C46.4034 49.1749 46.3636 49.1917 46.328 49.2105H46.3259C46.2924 49.2273 46.2588 49.244 46.2253 49.2629C46.2211 49.265 46.219 49.2671 46.2149 49.2692C46.1708 49.2273 46.1268 49.1854 46.0807 49.1435C46.0688 49.2117 46.0717 49.2817 46.0891 49.3488L46.0954 49.374C46.1373 49.418 46.1813 49.4599 46.2274 49.5039C46.2693 49.4724 46.3091 49.4389 46.351 49.4075C46.3762 49.3865 46.4013 49.3656 46.4286 49.3446C46.4328 49.2901 46.4391 49.2273 46.4453 49.1581H46.4432Z" fill="#2F2E41"/>
<path d="M78.0428 67.1979C77.7371 67.1979 77.444 67.3193 77.2279 67.5354C77.0118 67.7515 76.8904 68.0446 76.8903 68.3503V79.4987H54.7847C54.4791 79.4987 54.186 79.6201 53.9699 79.8362C53.7537 80.0523 53.6323 80.3455 53.6323 80.6511C53.6323 80.9567 53.7537 81.2499 53.9699 81.466C54.186 81.6821 54.4791 81.8035 54.7847 81.8035H76.8903V145.92H79.1952V68.3503C79.1952 68.0446 79.0738 67.7515 78.8577 67.5354C78.6415 67.3193 78.3484 67.1979 78.0428 67.1979Z" fill="#E6E6E6"/>
<path d="M58.9509 78.7486C58.7362 78.5112 58.4724 78.3233 58.1779 78.1978C57.8833 78.0724 57.5651 78.0124 57.2451 78.0221C56.9251 78.0318 56.6111 78.1108 56.3246 78.2538C56.0382 78.3968 55.7863 78.6003 55.5862 78.8502L50.7563 77.4943L49.2165 80.2284L56.0641 82.0474C56.5099 82.3529 57.0522 82.4842 57.5882 82.4165C58.1243 82.3488 58.617 82.0869 58.9728 81.6802C59.3286 81.2736 59.523 80.7506 59.5189 80.2102C59.5149 79.6699 59.3128 79.1499 58.9509 78.7486Z" fill="#FFB6B6"/>
<path d="M48.1759 75.5361C47.826 75.3538 47.4761 75.1757 47.1346 75.0102C46.3928 74.6435 45.7035 74.3229 45.1964 74.105C45.4455 73.3496 45.6429 72.5782 45.7873 71.796C46.3823 68.7955 46.7867 64.1187 44.0733 64.257C43.6806 64.2852 43.2954 64.3787 42.9335 64.5336C40.8193 65.7091 40.0943 70.3837 39.1472 72.3135C38.9817 72.5377 37.3012 74.8677 37.5715 76.5922C38.3384 78.2684 40.7774 79.7016 43.0634 80.634L43.0655 80.6361C43.5055 80.8163 43.9413 80.9777 44.3562 81.1201C44.8297 81.2815 45.2802 81.4156 45.6846 81.5203C46.4913 81.7299 47.122 81.8242 47.4258 81.7823C47.8274 81.7851 48.2278 81.7386 48.6181 81.644L49.0979 80.7975L49.3933 80.2736L50.9376 77.5455L51.0968 77.2648C50.167 76.6176 49.1907 76.0398 48.1759 75.5361Z" fill="#2F2E41"/>
<path d="M153.216 90.1383C148.426 92.0933 143.012 93.583 136.919 94.5008C132.958 95.0865 128.965 95.4252 124.963 95.5149C121.46 95.6029 117.77 95.524 113.896 95.2781V18.5707C113.896 18.1865 114.049 17.8182 114.321 17.5468C114.593 17.2753 114.961 17.1228 115.345 17.1228L115.924 17.1249L118.243 17.1312H118.283L180.552 17.2862H180.835L183.085 17.2925C183.408 18.3318 183.708 19.4025 183.986 20.5046C189.593 42.7758 185.453 76.9818 153.216 90.1383Z" fill="#F2F2F2"/>
<path d="M127.785 49.4061C127.822 51.9439 123.836 51.944 123.873 49.4059C123.836 46.8683 127.822 46.8682 127.785 49.4061Z" fill="#0073BC"/>
<path d="M162.211 52.5736H124.456C124.302 52.5736 124.154 52.6348 124.045 52.7439C123.936 52.8529 123.875 53.0008 123.875 53.155C123.875 53.3092 123.936 53.4571 124.045 53.5662C124.154 53.6752 124.302 53.7365 124.456 53.7365H162.211C162.976 53.7491 162.957 52.561 162.211 52.5736Z" fill="#CCCCCC"/>
<path d="M148.789 54.8741H124.456C124.301 54.8741 124.153 54.9355 124.044 55.0447C123.935 55.1539 123.873 55.3021 123.873 55.4566C123.873 55.6111 123.935 55.7592 124.044 55.8685C124.153 55.9777 124.301 56.0391 124.456 56.0391H148.789C149.549 56.0496 149.537 54.8636 148.789 54.8741Z" fill="#CCCCCC"/>
<path d="M162.211 35.2871H124.456C124.301 35.2871 124.153 35.3484 124.044 35.4577C123.935 35.5669 123.873 35.7151 123.873 35.8696C123.873 36.024 123.935 36.1722 124.044 36.2814C124.153 36.3907 124.301 36.4521 124.456 36.4521H162.211C162.976 36.4625 162.957 35.2766 162.211 35.2871Z" fill="#CCCCCC"/>
<path d="M148.789 37.5899H124.456C124.301 37.5899 124.153 37.6513 124.044 37.7605C123.935 37.8698 123.873 38.0179 123.873 38.1724C123.873 38.3269 123.935 38.4751 124.044 38.5843C124.153 38.6935 124.301 38.7549 124.456 38.7549H148.789C149.549 38.7654 149.537 37.5794 148.789 37.5899Z" fill="#CCCCCC"/>
<path d="M148.789 40.0017H124.456C124.301 40.0017 124.153 40.063 124.044 40.1723C123.935 40.2815 123.873 40.4297 123.873 40.5842C123.873 40.7386 123.935 40.8868 124.044 40.996C124.153 41.1053 124.301 41.1667 124.456 41.1667H148.789C149.549 41.1771 149.537 39.9912 148.789 40.0017Z" fill="#CCCCCC"/>
<path d="M127.785 64.4798C127.822 67.0177 123.836 67.0177 123.873 64.4797C123.836 61.942 127.822 61.942 127.785 64.4798Z" fill="#0073BC"/>
<path d="M162.211 67.6451H124.456C124.301 67.6451 124.153 67.7065 124.044 67.8157C123.935 67.9249 123.873 68.0731 123.873 68.2276C123.873 68.3821 123.935 68.5302 124.044 68.6395C124.153 68.7487 124.301 68.8101 124.456 68.8101H162.211C162.976 68.8206 162.957 67.6346 162.211 67.6451Z" fill="#CCCCCC"/>
<path d="M148.789 69.9479H124.456C124.301 69.9479 124.153 70.0093 124.044 70.1186C123.935 70.2278 123.873 70.376 123.873 70.5304C123.873 70.6849 123.935 70.8331 124.044 70.9423C124.153 71.0516 124.301 71.1129 124.456 71.1129H148.789C149.549 71.1234 149.537 69.9375 148.789 69.9479Z" fill="#CCCCCC"/>
<path d="M127.163 32.1366C127.2 34.6555 123.243 34.6556 123.28 32.1365C123.243 29.6177 127.2 29.6177 127.163 32.1366Z" fill="#0073BC"/>
<path d="M181.544 17.5679C181.243 17.2665 115.654 18.1476 115.728 17.263C115.405 16.9295 183.342 16.1665 181.544 17.5679Z" fill="#CACACA"/>
<path d="M112.541 20.5067C114.41 20.5067 115.925 18.9919 115.925 17.1233C115.925 15.2548 114.41 13.74 112.541 13.74C110.673 13.74 109.158 15.2548 109.158 17.1233C109.158 18.9919 110.673 20.5067 112.541 20.5067Z" fill="#CACACA"/>
<path d="M183.93 20.5067C185.799 20.5067 187.314 18.9919 187.314 17.1233C187.314 15.2548 185.799 13.74 183.93 13.74C182.062 13.74 180.547 15.2548 180.547 17.1233C180.547 18.9919 182.062 20.5067 183.93 20.5067Z" fill="#CACACA"/>
<path d="M153.216 90.1383C148.426 92.0932 143.012 93.583 136.919 94.5007C132.958 95.0865 128.965 95.4252 124.963 95.5149C121.359 95.473 117.67 95.394 113.896 95.2781V92.6045C118.977 88.3405 140.747 87.6595 153.216 90.1383Z" fill="#CACACA"/>
</g>
<defs>
<clipPath id="clip0_184_899">
<rect width="180.313" height="132.48" fill="white" transform="translate(7 13.74)"/>
</clipPath>
</defs>
</svg>
